<svg xmlns="http://www.w3.org/2000/svg" viewBox="0 0 128.33 102.55"><defs><style>.cls-1{fill:#7364a9;}</style></defs><title>s</title><g id="Livello_2" data-name="Livello 2"><g id="Layer_1" data-name="Layer 1"><g id="_Gruppo_" data-name="&lt;Gruppo&gt;"><path id="_Tracciato_" data-name="&lt;Tracciato&gt;" class="cls-1" d="M128.33,30.8c-.1,33.63-34.9,56.42-66.53,40.62-4.17-2.08-7.7-5.46-11.43-8.37C44.65,58.58,39.05,57.4,34.81,60c-4.74,2.87-7.09,10-5.33,16.83.61,2.35,1.75,4.56,2.5,6.89,2.15,6.68-1.14,13.84-7.83,17.19-6.48,3.25-13.53,1.75-17.28-4.54-9-15-9.11-30.74-.75-45.88,7.92-14.35,20.71-21.71,37.25-20,6.28.63,12.49,3.64,18.34,6.38,4.08,1.91,7.42,5.35,11.26,7.85,6.84,4.46,14.72,4.28,20.58-.23,5.49-4.22,7.63-12.59,5.09-20.05-.34-1-.79-2-1.22-3-3.64-8.36-1-16,6.68-19.71,8-3.81,14.85-1.14,19.19,7.47A43.22,43.22,0,0,1,128.33,30.8Z"/></g></g></g></svg>