<svg xmlns="http://www.w3.org/2000/svg" viewBox="0 0 483.56 153.92"><title>logo</title><g id="Livello_2" data-name="Livello 2"><g id="Layer_1" data-name="Layer 1"><path d="M230.7,21.57v87a38.49,38.49,0,0,1-68.08,24.49,37.86,37.86,0,0,1-8.82-24.49,11.35,11.35,0,0,1,22.69,0,15.81,15.81,0,0,0,15.85,15.85A15.84,15.84,0,0,0,208,108.56v-87a11.41,11.41,0,0,1,11.35-11.35A11.3,11.3,0,0,1,230.7,21.57ZM346,66.59v69a10.3,10.3,0,0,1-10.45,10.27c-5.94,0-9.54-4.68-9.54-10.27v-2.16c-7.74,6.66-16.75,10.63-27.56,10.63a43.49,43.49,0,1,1,0-87c10.81,0,19.81,4.14,27.56,10.45v-.9c0-5.58,3.6-10.27,9.54-10.27A10.3,10.3,0,0,1,346,66.59Zm-25,34A22.6,22.6,0,1,0,298.42,123,22.64,22.64,0,0,0,320.94,100.63ZM448.26,56.69a35.13,35.13,0,0,0-24.85,9.73,36.43,36.43,0,0,0-24.85-9.73,36.85,36.85,0,0,0-16.57,4,10,10,0,0,0-8.28-4.32,11.11,11.11,0,0,0-10.81,11v68.8a10.92,10.92,0,0,0,10.81,10.63,10.69,10.69,0,0,0,10.81-10.63V90.73c0-7,6.3-12.43,14-12.43s14,5.4,14,12.43v44.85a10.72,10.72,0,1,0,21.43,0V90.73c0-7,6.3-12.43,14.23-12.43,7.38,0,13.69,5.4,13.69,12.43v44.85a10.88,10.88,0,0,0,11,10.81,10.57,10.57,0,0,0,10.63-10.81V90.73C483.56,72,467.53,56.69,448.26,56.69ZM149.34,40.3v4.57c-3.81,0-6.13,1.64-8.81,3.53a25.29,25.29,0,0,1-6,3.44V139a15,15,0,0,1-14.93,14.93H48.36v-4.57h71.22A10.37,10.37,0,0,0,129.94,139v-9.25H19.41V139a10.37,10.37,0,0,0,10.36,10.36h12.5v4.57H29.76A15,15,0,0,1,14.84,139V51.84a25.28,25.28,0,0,1-6-3.44c-2.68-1.9-5-3.53-8.8-3.53V40.3a12.79,12.79,0,0,0,12.39-9.82V21.35A13,13,0,0,1,22.26,0H127.09A13,13,0,0,1,137,21.35v9.13A12.79,12.79,0,0,0,149.34,40.3ZM13.88,13a8.32,8.32,0,0,0,1.83,5.22H42.26v4.57H17v5.7H132.38v-5.7h-84V18.17h85.28a8.38,8.38,0,0,0-6.55-13.6H22.26A8.39,8.39,0,0,0,13.88,13Zm44.95,101.9a8.26,8.26,0,1,0-8.26,8.26A8.11,8.11,0,0,0,58.82,114.86Zm0-40.75,39.42-8.38H19.41v59.43h22a13.8,13.8,0,0,1,9.19-24.07,14.16,14.16,0,0,1,8.26,2.75ZM84.7,125.16a13.78,13.78,0,0,1,4.41-26.82,14.16,14.16,0,0,1,8.26,2.75V71.35l-33,7.16v8.26L91.86,81V86.5L64.33,92.28v22.58a13.68,13.68,0,0,1-4.58,10.3Zm4.41-4.8a8.26,8.26,0,1,0-8.26-8.26A8.11,8.11,0,0,0,89.11,120.36Zm40.83-54.63H102.87V112.1a13.6,13.6,0,0,1-9.36,13.06h36.42Zm0-13-.84,0c-5.39,0-8.14-2.4-10.57-4.51-2.17-1.89-3.89-3.39-7.57-3.39s-5.4,1.5-7.57,3.39c-2.43,2.12-5.18,4.51-10.57,4.51s-8.14-2.4-10.57-4.51c-2.17-1.89-3.89-3.39-7.57-3.39s-5.4,1.5-7.57,3.39c-2.43,2.12-5.18,4.51-10.57,4.51S48.39,50.37,46,48.26c-2.17-1.89-3.89-3.39-7.57-3.39s-5.4,1.5-7.57,3.39c-2.43,2.12-5.18,4.51-10.57,4.51l-.84,0v8.41H129.94Zm11-10.09a17.39,17.39,0,0,1-8-9.64H16.42a17.39,17.39,0,0,1-8,9.64c1.09.64,2.08,1.34,3,2a20,20,0,0,0,5.25,3l1,.26a10.21,10.21,0,0,0,2.56.3c3.68,0,5.4-1.5,7.57-3.39C30.24,42.7,33,40.3,38.39,40.3S46.53,42.7,49,44.81c2.17,1.89,3.89,3.39,7.57,3.39s5.4-1.5,7.57-3.39c2.43-2.12,5.18-4.51,10.57-4.51s8.14,2.4,10.57,4.51c2.17,1.89,3.89,3.39,7.57,3.39s5.4-1.5,7.57-3.39c2.43-2.12,5.18-4.51,10.57-4.51s8.14,2.4,10.57,4.51c1.9,1.66,3.45,3,6.28,3.32a11.78,11.78,0,0,0,1.29.07,10.22,10.22,0,0,0,2.56-.3l1-.26a20,20,0,0,0,5.24-3C138.85,44,139.84,43.3,140.92,42.66Z"/></g></g></svg>